<svg width="26" height="22" viewBox="0 0 26 22" fill="none" xmlns="http://www.w3.org/2000/svg">
<path d="M25.7992 5.79719V17.2004C25.7992 18.2613 25.3778 19.2787 24.6276 20.0288C23.8775 20.779 22.8601 21.2004 21.7992 21.2004H4.19922C3.13835 21.2004 2.12094 20.779 1.37079 20.0288C0.620646 19.2787 0.199219 18.2613 0.199219 17.2004V5.79719L12.5928 13.09C12.7159 13.1626 12.8563 13.2009 12.9992 13.2009C13.1422 13.2009 13.2825 13.1626 13.4056 13.09L25.7992 5.79719ZM21.7992 0.400391C22.7835 0.400236 23.7332 0.762961 24.4667 1.41917C25.2003 2.07539 25.6662 2.97902 25.7752 3.95719L12.9992 11.4724L0.223219 3.95719C0.332272 2.97902 0.798137 2.07539 1.53169 1.41917C2.26524 0.762961 3.21498 0.400236 4.19922 0.400391H21.7992Z" fill="#0A0D2F"/>
</svg>
