<svg width="28" height="32" viewBox="0 0 28 32" fill="none" xmlns="http://www.w3.org/2000/svg">
<path d="M27.5 14V24.5C27.5 25.2956 27.1839 26.0587 26.6213 26.6213C26.0587 27.1839 25.2956 27.5 24.5 27.5H3.5C2.70435 27.5 1.94129 27.1839 1.37868 26.6213C0.81607 26.0587 0.5 25.2956 0.5 24.5V14H27.5ZM20 0.5C20.3978 0.5 20.7794 0.658035 21.0607 0.93934C21.342 1.22064 21.5 1.60218 21.5 2V3.5H24.5C25.2956 3.5 26.0587 3.81607 26.6213 4.37868C27.1839 4.94129 27.5 5.70435 27.5 6.5V11H0.5V6.5C0.5 5.70435 0.81607 4.94129 1.37868 4.37868C1.94129 3.81607 2.70435 3.5 3.5 3.5H6.5V2C6.5 1.60218 6.65804 1.22064 6.93934 0.93934C7.22064 0.658035 7.60218 0.5 8 0.5C8.39782 0.5 8.77936 0.658035 9.06066 0.93934C9.34196 1.22064 9.5 1.60218 9.5 2V3.5H18.5V2C18.5 1.60218 18.658 1.22064 18.9393 0.93934C19.2206 0.658035 19.6022 0.5 20 0.5Z" fill="white"/>
</svg>
