<svg width="157" height="101" viewBox="0 0 157 101" fill="none" xmlns="http://www.w3.org/2000/svg">
<path fill-rule="evenodd" clip-rule="evenodd" d="M79.865 4.04053C79.1917 6.47033 78.6171 10.5277 78.5884 13.0563L78.5357 17.6539L75.1649 13.7034C73.3115 11.5299 71.598 9.97826 71.3571 10.2553C71.1163 10.5311 70.6013 15.1539 70.2125 20.5273C69.7457 26.9593 69.8811 29.7075 70.6082 28.573C71.2149 27.6248 71.7196 24.1341 71.7299 20.8147C71.7391 17.4952 72.1657 14.7804 72.6784 14.7804C73.1911 14.7804 74.7543 16.3321 76.1535 18.2285C77.5528 20.125 79.147 21.6767 79.6952 21.6767C80.5428 21.6767 82.114 1.15787 81.3536 0.017679C81.208 -0.199555 80.5382 1.61073 79.865 4.04053ZM49.1369 15.0677C49.4901 19.9676 49.513 23.9755 49.1885 23.9755C48.8627 23.9755 47.2938 22.9479 45.7007 21.6928C44.1076 20.4365 42.3035 19.7193 41.6922 20.0986C41.0798 20.4779 43.0353 22.5376 46.0367 24.6755C49.0382 26.8145 51.691 28.3661 51.9319 28.1248C52.5202 27.5351 49.8606 7.46455 49.0967 6.73469C48.7664 6.41861 48.7848 10.1679 49.1369 15.0677ZM90.3099 10.969C87.4919 12.0989 86.4253 17.1286 88.3727 20.1078C90.6287 23.5583 96.3518 23.8502 98.086 20.6032C101.371 14.4517 96.5434 8.47026 90.3099 10.969ZM59.6552 17.6814C61.3125 23.1985 62.1807 24.7513 63.0959 23.8341C63.9974 22.9295 60.7 13.1977 59.3375 12.7425C58.4418 12.4425 58.5404 13.9678 59.6552 17.6814ZM96.7613 16.1401C97.2212 20.1319 93.7288 22.3353 90.5886 20.0342C88.7593 18.694 88.6606 18.0584 89.8672 15.4022C91.7665 11.2253 96.2497 11.7046 96.7613 16.1401ZM105.332 19.6526C101.594 24.8881 101.497 28.596 105.224 23.7399L107.251 21.102L107.276 24.2628C107.304 27.7776 108.583 28.3075 110.742 25.6996C113.003 22.9698 114.234 23.6916 112.975 27.0087C112.342 28.6765 112.098 30.3143 112.43 30.6477C113.405 31.6246 114.075 30.4454 115.787 24.7456C117.61 18.6757 116.229 17.4952 112.354 21.8112L110.169 24.2456L109.595 19.3653L109.022 14.4861L105.332 19.6526ZM29.8722 27.857C28.4053 30.0994 28.333 31.135 29.4684 33.6315C31.901 38.9819 38.5577 39.0945 40.9536 33.8246C44.0503 27.011 33.9735 21.5836 29.8722 27.857ZM38.5979 29.9316C39.4535 31.5327 39.4041 32.6372 38.4258 33.8188C36.4898 36.1555 33.0434 35.8647 31.6453 33.2464C30.1142 30.3776 30.1314 30.2132 32.2119 28.1294C34.2797 26.057 36.928 26.8041 38.5979 29.9316ZM122.211 31.4465C119.373 32.9694 117.566 34.2993 118.197 34.4004C120.904 34.836 121.75 35.0774 123.71 35.9705C124.851 36.49 125.519 37.6083 125.194 38.4543C124.871 39.3002 125.05 40.2692 125.594 40.6059C126.454 41.1381 130.24 32.1028 130.24 29.5178C130.24 27.9202 127.603 28.5535 122.211 31.4465ZM126.799 33.8131C126.799 34.7981 126.283 35.2854 125.652 34.8946C125.021 34.5038 124.505 33.6981 124.505 33.1028C124.505 32.5074 125.021 32.0212 125.652 32.0212C126.283 32.0212 126.799 32.828 126.799 33.8131ZM13.2545 34.1372C13.2545 34.7728 16.1081 37.0808 19.597 39.2681C25.9933 43.2771 26.0323 44.638 19.7552 44.6817C14.1572 44.7219 13.961 46.608 19.2345 49.7045C24.8579 53.0078 25.8706 53.2871 25.8706 51.5366C25.8706 50.8906 24.5654 49.7665 22.9712 49.0378C19.636 47.5149 21.1143 45.8724 25.8706 45.8138C31.885 45.7402 32.0146 43.9713 26.2491 40.6531C23.2017 38.9002 19.0327 36.4567 16.982 35.2245C14.9313 33.9912 13.2545 33.5027 13.2545 34.1372ZM55.5676 39.4887C52.9286 40.9266 48.8088 45.8081 48.8088 47.4977C48.8088 47.8356 49.9959 48.1126 51.4467 48.1126C57.9406 48.1126 58.4762 53.6768 52.7106 61.2443C50.4409 64.2235 48.904 66.982 49.2963 67.374C49.6874 67.7671 50.8148 66.9349 51.8 65.5258C55.9186 59.6317 61.933 55.3422 63.1992 57.3962C63.6212 58.0801 61.5098 60.9328 58.506 63.7362C55.5022 66.5395 53.3816 69.1705 53.7945 69.5831C54.2062 69.9957 56.4794 68.3866 58.8443 66.0074C65.5675 59.2432 71.02 56.9445 80.3489 56.9399C89.5827 56.9364 93.5281 58.58 101.124 65.597C103.89 68.1533 106.154 69.7268 106.154 69.0946C106.154 68.4625 103.784 65.7545 100.887 63.0787C97.4242 59.88 96.0055 57.8237 96.7487 57.0789C98.3371 55.487 101.487 57.3916 106.54 62.9971C108.851 65.5614 110.742 67.1418 110.742 66.5096C110.742 65.8775 108.936 63.3557 106.728 60.9075C99.2547 52.617 102.826 50.9481 110.742 59.0317C116.479 64.8902 117.624 65.3131 117.624 61.5742C117.624 58.5272 108.736 49.3723 102.949 46.4563C99.1079 44.5207 84.5948 42.3898 75.1431 42.3748C72.2185 42.3691 67.9669 41.3588 65.4391 40.0669C60.1667 37.3727 59.521 37.3348 55.5676 39.4887ZM134.827 41.8691C130.003 45.2816 129.849 46.569 133.902 49.601C136.828 51.7906 137.143 51.8102 139.923 49.9849C143.02 47.9517 143.637 44.8265 141.669 41.1404C140.178 38.3485 139.74 38.3945 134.827 41.8691ZM140.562 44.6748C140.562 47.6379 137.213 49.3918 134.418 47.893C132.353 46.7862 132.417 46.5678 135.534 44.0771C139.159 41.1806 140.562 41.3473 140.562 44.6748ZM52.2496 85.3998C52.2496 90.1042 52.7657 94.2719 53.3965 94.6627C54.1248 95.1133 54.5434 91.9927 54.5434 86.1101C54.5434 80.7011 54.0663 76.8472 53.3965 76.8472C52.7347 76.8472 52.2496 80.4643 52.2496 85.3998ZM68.6676 78.0047C59.9614 81.5206 64.314 97.0672 73.3677 94.7903C74.9997 94.38 76.3347 93.5271 76.3347 92.895C76.3347 92.2375 75.0869 92.0593 73.4216 92.4777C69.8088 93.3869 66.0125 90.2927 66.0125 86.4389C66.0125 82.5022 70.1471 78.7828 73.5672 79.6425C76.6169 80.4103 77.414 78.6575 74.5203 77.5449C72.3011 76.6909 71.8285 76.7288 68.6676 78.0047ZM0.0650334 79.146C0.454984 79.7782 1.51703 80.2954 2.42653 80.2954C3.6824 80.2954 4.07923 81.9539 4.07923 87.1917C4.07923 91.0226 4.58846 94.088 5.22614 94.088C5.86383 94.088 6.37306 91.0226 6.37306 87.1917C6.37306 81.8275 6.75498 80.2954 8.09342 80.2954C9.03963 80.2954 9.81379 79.7782 9.81379 79.146C9.81379 78.5138 7.46033 77.9966 4.58502 77.9966C1.39086 77.9966 -0.3685 78.4437 0.0650334 79.146ZM9.81494 89.8456C9.81379 93.2386 10.2565 95.0983 10.9607 94.6627C11.5915 94.2719 12.1076 92.1731 12.1076 89.9974C12.1076 87.248 12.6318 86.0423 13.828 86.0423C14.7742 86.0423 15.5484 85.5803 15.5484 85.0148C15.5484 84.4493 14.2581 84.0608 12.6822 84.1527C10.0455 84.3044 9.81494 84.7607 9.81494 89.8456ZM18.0544 85.14C14.5586 88.6434 18.2585 96.0132 22.8875 94.7673C24.2133 94.411 25.6836 94.1122 26.1573 94.1041C26.631 94.0949 27.0163 91.8904 27.0152 89.2031C27.0129 84.4941 26.8764 84.309 23.2132 84.0481C21.1235 83.8999 18.8022 84.3906 18.0544 85.14ZM29.3595 85.1803C29.3859 85.971 30.355 88.4008 31.5134 90.5812L33.6203 94.5443L36.0529 89.764C38.7516 84.4654 38.927 83.7435 37.5244 83.7435C36.9945 83.7435 35.8946 85.1653 35.0791 86.9044L33.5985 90.0652L32.5066 86.9044C31.401 83.7056 29.2712 82.5378 29.3595 85.1803ZM40.8378 85.3987C40.0843 86.3078 39.6347 88.4962 39.8377 90.2617C40.3354 94.5857 45.5872 96.6603 48.5405 93.6995C50.4283 91.8053 50.3308 91.7214 46.64 92.0341C44.3026 92.2318 42.5478 91.7904 42.2428 90.9272C41.8987 89.9502 43.0525 89.4905 45.8464 89.4905C48.4533 89.4905 49.9557 88.9445 49.9557 87.9963C49.9557 84.0711 43.4677 82.2218 40.8378 85.3987ZM80.0049 85.1228C77.7202 87.4124 78.3419 92.7042 81.0669 94.1662C84.1521 95.8201 88.3854 94.0823 89.2387 90.8111C90.5599 85.7458 83.6383 81.4815 80.0049 85.1228ZM91.2446 88.987C91.2446 95.2087 93.2712 96.8029 93.7541 90.9605C94.0052 87.9331 94.714 86.5216 96.119 86.2549C97.727 85.9492 98.1261 86.6906 98.1261 89.9813C98.1261 92.2398 98.6422 94.088 99.273 94.088C99.9038 94.088 100.42 92.2777 100.42 90.0652C100.42 87.2561 100.938 86.0423 102.14 86.0423C103.342 86.0423 103.861 87.2561 103.861 90.0652C103.861 92.2777 104.407 94.088 105.073 94.088C105.791 94.088 106.142 92.0938 105.933 89.2031L105.581 84.3182L98.4128 84.17L91.2446 84.0217V88.987ZM109.595 92.5386C109.595 97.4028 110.082 100.984 110.742 100.984C111.373 100.984 111.889 99.3982 111.889 97.4592C111.889 94.4282 112.219 94.0386 114.238 94.6799C117.386 95.6822 119.917 93.3696 119.917 89.4905C119.917 85.4757 117.965 83.855 113.289 83.9884L109.595 84.093V92.5386ZM123.57 85.14C120.075 88.6434 123.775 96.0132 128.403 94.7673C129.729 94.411 131.201 94.1122 131.673 94.1041C132.146 94.0949 132.532 91.8904 132.531 89.2031C132.529 84.4941 132.392 84.309 128.729 84.0481C126.64 83.8999 124.318 84.3906 123.57 85.14ZM135.974 89.0307C135.974 91.8122 136.49 94.088 137.121 94.088C137.752 94.088 138.268 92.2777 138.268 90.0652C138.268 86.809 138.705 86.0423 140.562 86.0423C142.419 86.0423 142.856 86.809 142.856 90.0652C142.856 92.2777 143.402 94.088 144.068 94.088C144.786 94.088 145.137 92.0938 144.928 89.2031C144.584 84.4228 144.483 84.3148 140.275 84.1458L135.974 83.9734V89.0307ZM148.162 88.0537C150.226 92.7432 150.389 94.4581 149.141 98.3982C147.768 102.738 150.409 101.296 152.297 96.6741C153.265 94.3041 154.898 90.4249 155.927 88.0537C157.068 85.4239 157.322 83.7435 156.579 83.7435C155.909 83.7435 154.672 85.386 153.829 87.394L152.298 91.0433L150.415 87.394C147.769 82.2654 145.862 82.824 148.162 88.0537ZM24.5126 89.1928C24.1055 92.7283 20.5489 94.2041 19.4364 91.2996C18.3721 88.5192 19.8011 86.0423 22.47 86.0423C24.4163 86.0423 24.8062 86.6446 24.5126 89.1928ZM47.6619 87.1917C47.6619 87.8239 46.3407 88.3411 44.727 88.3411C43.0628 88.3411 42.0982 87.8434 42.5008 87.1917C42.8908 86.5595 44.2109 86.0423 45.4358 86.0423C46.6607 86.0423 47.6619 86.5595 47.6619 87.1917ZM86.0835 89.4905C86.0835 91.2847 85.3426 92.4754 84.073 92.7202C81.8021 93.1582 80.326 90.4065 81.3697 87.6813C82.4639 84.8251 86.0835 86.2136 86.0835 89.4905ZM117.05 89.4905C117.05 91.2847 116.309 92.4754 115.04 92.7202C112.769 93.1582 111.293 90.4065 112.336 87.6813C113.431 84.8251 117.05 86.2136 117.05 89.4905ZM129.666 89.4905C129.666 91.2847 128.925 92.4754 127.656 92.7202C125.385 93.1582 123.909 90.4065 124.952 87.6813C126.047 84.8251 129.666 86.2136 129.666 89.4905Z" fill="#0A0D2F"/>
<path fill-rule="evenodd" clip-rule="evenodd" d="M55.5674 39.5106C52.9283 40.9472 48.8086 45.8244 48.8086 47.5125C48.8086 47.8502 49.9956 48.1269 51.4465 48.1269C57.9403 48.1269 58.4759 53.6862 52.7104 61.2472C50.4407 64.2238 48.9038 66.98 49.296 67.3716C49.6871 67.7643 50.8145 66.9329 51.7997 65.525C55.9183 59.636 61.9327 55.3503 63.1989 57.4024C63.621 58.0857 61.5095 60.936 58.5057 63.7369C55.502 66.5378 53.3813 69.1665 53.7942 69.5788C54.206 69.991 56.4791 68.3833 58.8441 66.0061C65.5673 59.2479 71.0197 56.9511 80.3487 56.9465C89.5825 56.9431 93.5279 58.5853 101.124 65.5962C103.89 68.1502 106.154 69.7223 106.154 69.0907C106.154 68.4591 103.784 65.7535 100.886 63.08C97.4239 59.8841 96.0052 57.8296 96.7484 57.0855C98.3369 55.495 101.486 57.3978 106.54 62.9985C108.851 65.5606 110.742 67.1396 110.742 66.508C110.742 65.8764 108.936 63.3568 106.728 60.9107C99.2544 52.6274 102.826 50.96 110.742 59.0366C116.479 64.8899 117.623 65.3125 117.623 61.5768C117.623 58.5324 108.736 49.3855 102.949 46.4721C99.1076 44.5382 84.5946 42.4091 75.1429 42.3942C72.2182 42.3884 67.9666 41.379 65.4388 40.0882C60.1665 37.3964 59.5208 37.3585 55.5674 39.5106Z" fill="#DE2920"/>
</svg>
