<svg width="182" height="117" viewBox="0 0 182 117" fill="none" xmlns="http://www.w3.org/2000/svg">
<path fill-rule="evenodd" clip-rule="evenodd" d="M92.5823 4.68061C91.8019 7.49533 91.1357 12.1954 91.1025 15.1246L91.0414 20.4505L87.1338 15.8743C84.9853 13.3565 82.999 11.559 82.7197 11.8799C82.4405 12.1994 81.8436 17.5546 81.3929 23.7792C80.8517 31.2301 81.0086 34.4136 81.8516 33.0994C82.5549 32.001 83.1399 27.9573 83.1519 24.112C83.1625 20.2668 83.6571 17.1218 84.2514 17.1218C84.8457 17.1218 86.6579 18.9193 88.2799 21.1162C89.9019 23.3132 91.75 25.1106 92.3855 25.1106C93.3681 25.1106 95.1895 1.34129 94.308 0.0204797C94.1392 -0.231168 93.3627 1.86589 92.5823 4.68061ZM56.9612 17.4547C57.3707 23.1307 57.3973 27.7736 57.021 27.7736C56.6434 27.7736 54.8246 26.5832 52.9779 25.1293C51.1311 23.674 49.0398 22.8432 48.3311 23.2825C47.6212 23.7219 49.888 26.1079 53.3674 28.5844C56.8469 31.0623 59.9221 32.8598 60.2013 32.5802C60.8833 31.8971 57.8001 8.64705 56.9147 7.80157C56.5317 7.43542 56.553 11.7787 56.9612 17.4547ZM104.69 12.7067C101.424 14.0155 100.187 19.842 102.445 23.2932C105.06 27.2903 111.694 27.6284 113.705 23.867C117.513 16.741 111.917 9.81209 104.69 12.7067ZM69.1544 20.4825C71.0756 26.8735 72.0821 28.6723 73.1431 27.6098C74.1881 26.5619 70.3656 15.2884 68.7861 14.7611C67.7478 14.4136 67.8621 16.1805 69.1544 20.4825ZM112.169 18.697C112.702 23.3211 108.654 25.8736 105.014 23.208C102.893 21.6555 102.779 20.9192 104.177 17.8422C106.379 13.0036 111.576 13.5588 112.169 18.697ZM122.105 22.7659C117.772 28.8308 117.659 33.1261 121.98 27.5006L124.329 24.4449L124.358 28.1064C124.39 32.1781 125.873 32.7919 128.376 29.7708C130.997 26.6085 132.425 27.4447 130.965 31.2873C130.231 33.2193 129.948 35.1166 130.333 35.5027C131.463 36.6345 132.24 35.2684 134.225 28.6657C136.338 21.6342 134.737 20.2668 130.244 25.2664L127.711 28.0865L127.047 22.4331L126.382 16.781L122.105 22.7659ZM34.6289 32.2699C32.9284 34.8676 32.8446 36.0673 34.1609 38.9592C36.9808 45.1572 44.6975 45.2877 47.4749 39.1829C51.0647 31.29 39.3833 25.0028 34.6289 32.2699ZM44.744 34.6732C45.7359 36.528 45.6787 37.8075 44.5446 39.1763C42.3003 41.8831 38.3051 41.5463 36.6843 38.5132C34.9094 35.1898 34.9293 34.9994 37.3411 32.5855C39.7383 30.1849 42.8082 31.0503 44.744 34.6732ZM141.672 36.4281C138.381 38.1923 136.287 39.7328 137.018 39.85C140.156 40.3546 141.137 40.6342 143.409 41.6688C144.732 42.2706 145.506 43.5661 145.13 44.5461C144.755 45.526 144.962 46.6485 145.592 47.0386C146.59 47.655 150.978 37.1884 150.978 34.1939C150.978 32.3432 147.922 33.0768 141.672 36.4281ZM146.99 39.1696C146.99 40.3107 146.392 40.8752 145.66 40.4225C144.929 39.9698 144.331 39.0365 144.331 38.3468C144.331 37.6571 144.929 37.0938 145.66 37.0938C146.392 37.0938 146.99 38.0285 146.99 39.1696ZM15.3651 39.5451C15.3651 40.2814 18.673 42.955 22.7175 45.4887C30.1324 50.1329 30.1776 51.7094 22.901 51.7599C16.4115 51.8065 16.1841 53.9915 22.2974 57.5785C28.8161 61.4051 29.9901 61.7286 29.9901 59.7008C29.9901 58.9525 28.4771 57.6504 26.629 56.8062C22.7627 55.042 24.4765 53.1394 29.9901 53.0714C36.9622 52.9862 37.1125 50.9371 30.4288 47.0932C26.8963 45.0627 22.0634 42.232 19.6861 40.8046C17.3089 39.376 15.3651 38.8101 15.3651 39.5451ZM64.4159 45.7444C61.3567 47.41 56.5809 53.0648 56.5809 55.022C56.5809 55.4135 57.957 55.7344 59.6389 55.7344C67.1668 55.7344 67.7877 62.18 61.104 70.9464C58.4729 74.3975 56.6913 77.5931 57.146 78.0471C57.5994 78.5025 58.9063 77.5385 60.0484 75.9061C64.8228 69.0783 71.7949 64.1093 73.2627 66.4886C73.752 67.2809 71.3043 70.5856 67.8222 73.833C64.3402 77.0805 61.8818 80.1282 62.3605 80.6062C62.8378 81.0842 65.4729 79.2201 68.2144 76.464C76.0082 68.6283 82.3289 65.9654 93.1434 65.96C103.848 65.956 108.421 67.86 117.227 75.9886C120.434 78.9498 123.058 80.7726 123.058 80.0403C123.058 79.308 120.31 76.1711 116.951 73.0714C112.938 69.3659 111.293 66.9839 112.154 66.1211C113.996 64.2771 117.647 66.4833 123.505 72.9769C126.184 75.9474 128.376 77.7781 128.376 77.0458C128.376 76.3135 126.282 73.3923 123.723 70.5563C115.06 60.9524 119.2 59.0191 128.376 68.3833C135.027 75.1698 136.354 75.6598 136.354 71.3285C136.354 67.7988 126.051 57.1937 119.342 53.8157C114.889 51.5735 98.0653 49.105 87.1086 49.0877C83.7182 49.081 78.7896 47.9107 75.8593 46.4141C69.7474 43.2932 68.9989 43.2492 64.4159 45.7444ZM156.297 48.5019C150.705 52.455 150.525 53.9462 155.224 57.4586C158.615 59.9951 158.981 60.0177 162.204 57.9033C165.794 55.548 166.509 51.9277 164.227 47.6577C162.499 44.4236 161.991 44.4768 156.297 48.5019ZM162.944 51.752C162.944 55.1845 159.062 57.2163 155.822 55.4801C153.429 54.1979 153.502 53.9449 157.116 51.0596C161.318 47.7043 162.944 47.8974 162.944 51.752ZM60.5696 98.9285C60.5696 104.378 61.1679 109.206 61.8991 109.659C62.7434 110.181 63.2287 106.566 63.2287 99.7513C63.2287 93.4855 62.6756 89.021 61.8991 89.021C61.132 89.021 60.5696 93.2112 60.5696 98.9285ZM79.602 90.3618C69.5094 94.4348 74.555 112.444 85.0504 109.807C86.9424 109.331 88.49 108.343 88.49 107.611C88.49 106.849 87.0434 106.643 85.1129 107.128C80.9249 108.181 76.5241 104.597 76.5241 100.132C76.5241 95.5719 81.3171 91.2632 85.2818 92.2592C88.817 93.1486 89.7411 91.1181 86.3866 89.8293C83.814 88.84 83.2662 88.8839 79.602 90.3618ZM0.075389 91.684C0.527434 92.4163 1.75859 93.0154 2.81292 93.0154C4.26877 93.0154 4.72879 94.9368 4.72879 101.004C4.72879 105.442 5.3191 108.993 6.05833 108.993C6.79756 108.993 7.38787 105.442 7.38787 101.004C7.38787 94.7903 7.83061 93.0154 9.38219 93.0154C10.4791 93.0154 11.3765 92.4163 11.3765 91.684C11.3765 90.9517 8.64828 90.3525 5.31512 90.3525C1.61234 90.3525 -0.427178 90.8705 0.075389 91.684ZM11.3778 104.079C11.3765 108.009 11.8897 110.163 12.706 109.659C13.4373 109.206 14.0356 106.775 14.0356 104.254C14.0356 101.069 14.6432 99.6728 16.0299 99.6728C17.1268 99.6728 18.0242 99.1375 18.0242 98.4825C18.0242 97.8274 16.5285 97.3773 14.7017 97.4839C11.6451 97.6596 11.3778 98.1882 11.3778 104.079ZM20.9293 98.6276C16.8768 102.686 21.1659 111.223 26.532 109.78C28.0689 109.367 29.7734 109.021 30.3225 109.012C30.8716 109.001 31.3183 106.447 31.317 103.334C31.3143 97.8793 31.1561 97.6649 26.9095 97.3627C24.4871 97.1909 21.7961 97.7595 20.9293 98.6276ZM34.0346 98.6742C34.0651 99.5902 35.1886 102.405 36.5314 104.931L38.9738 109.522L41.7938 103.984C44.9222 97.846 45.1256 97.0098 43.4996 97.0098C42.8853 97.0098 41.6103 98.6569 40.665 100.671L38.9486 104.333L37.6828 100.671C36.4011 96.9659 33.9322 95.6131 34.0346 98.6742ZM47.3406 98.9272C46.4671 99.9804 45.9459 102.515 46.1813 104.561C46.7583 109.57 52.8463 111.973 56.2698 108.543C58.4583 106.349 58.3452 106.252 54.0668 106.614C51.3572 106.843 49.323 106.331 48.9693 105.332C48.5705 104.2 49.908 103.667 53.1467 103.667C56.1688 103.667 57.9105 103.035 57.9105 101.936C57.9105 97.3893 50.3893 95.247 47.3406 98.9272ZM92.7445 98.6076C90.096 101.26 90.8167 107.39 93.9757 109.084C97.5521 111 102.459 108.986 103.449 105.197C104.98 99.3293 96.9565 94.3895 92.7445 98.6076ZM105.774 103.084C105.774 110.291 108.123 112.138 108.683 105.37C108.974 101.863 109.796 100.228 111.425 99.9191C113.289 99.5649 113.751 100.424 113.751 104.236C113.751 106.852 114.35 108.993 115.081 108.993C115.812 108.993 116.41 106.896 116.41 104.333C116.41 101.079 117.011 99.6728 118.405 99.6728C119.798 99.6728 120.399 101.079 120.399 104.333C120.399 106.896 121.032 108.993 121.804 108.993C122.637 108.993 123.043 106.683 122.801 103.334L122.393 97.6756L114.084 97.5038L105.774 97.3321V103.084ZM127.047 107.198C127.047 112.833 127.61 116.982 128.376 116.982C129.107 116.982 129.706 115.144 129.706 112.898C129.706 109.387 130.089 108.936 132.429 109.679C136.078 110.84 139.013 108.161 139.013 103.667C139.013 99.0164 136.75 97.139 131.329 97.2934L127.047 97.4146V107.198ZM143.247 98.6276C139.195 102.686 143.484 111.223 148.85 109.78C150.387 109.367 152.093 109.021 152.64 109.012C153.188 109.001 153.636 106.447 153.635 103.334C153.632 97.8793 153.474 97.6649 149.227 97.3627C146.805 97.1909 144.114 97.7595 143.247 98.6276ZM157.626 103.135C157.626 106.357 158.224 108.993 158.956 108.993C159.687 108.993 160.285 106.896 160.285 104.333C160.285 100.561 160.792 99.6728 162.944 99.6728C165.097 99.6728 165.603 100.561 165.603 104.333C165.603 106.896 166.236 108.993 167.009 108.993C167.841 108.993 168.248 106.683 168.006 103.334C167.607 97.7967 167.49 97.6716 162.612 97.4759L157.626 97.2761V103.135ZM171.755 102.003C174.147 107.435 174.336 109.422 172.889 113.986C171.298 119.014 174.36 117.343 176.548 111.989C177.67 109.243 179.564 104.75 180.756 102.003C182.079 98.9565 182.373 97.0098 181.511 97.0098C180.735 97.0098 179.302 98.9125 178.324 101.239L176.55 105.466L174.366 101.239C171.299 95.2976 169.088 95.9447 171.755 102.003ZM28.4159 103.322C27.9439 107.418 23.821 109.128 22.5314 105.763C21.2975 102.542 22.9542 99.6728 26.048 99.6728C28.3042 99.6728 28.7563 100.37 28.4159 103.322ZM55.2514 101.004C55.2514 101.737 53.7198 102.336 51.8491 102.336C49.9199 102.336 48.8018 101.759 49.2685 101.004C49.7205 100.272 51.2508 99.6728 52.6708 99.6728C54.0907 99.6728 55.2514 100.272 55.2514 101.004ZM99.7911 103.667C99.7911 105.746 98.9322 107.125 97.4604 107.409C94.8279 107.916 93.1168 104.728 94.3267 101.571C95.595 98.2628 99.7911 99.8712 99.7911 103.667ZM135.689 103.667C135.689 105.746 134.83 107.125 133.358 107.409C130.726 107.916 129.014 104.728 130.224 101.571C131.493 98.2628 135.689 99.8712 135.689 103.667ZM150.314 103.667C150.314 105.746 149.455 107.125 147.983 107.409C145.351 107.916 143.639 104.728 144.849 101.571C146.118 98.2628 150.314 99.8712 150.314 103.667Z" fill="#0A0D2F"/>
<path fill-rule="evenodd" clip-rule="evenodd" d="M64.4141 45.7694C61.3548 47.4336 56.5791 53.0834 56.5791 55.039C56.5791 55.4301 57.9552 55.7507 59.637 55.7507C67.1649 55.7507 67.7858 62.1907 61.1022 70.9494C58.471 74.3976 56.6895 77.5903 57.1442 78.044C57.5975 78.499 58.9045 77.5358 60.0466 75.9048C64.8209 69.083 71.7931 64.1183 73.2609 66.4956C73.7501 67.2871 71.3025 70.5889 67.8204 73.8336C64.3383 77.0782 61.88 80.1233 62.3586 80.6008C62.8359 81.0784 65.4711 79.216 68.2126 76.4622C76.0064 68.6334 82.327 65.9728 93.1415 65.9674C103.846 65.9634 108.419 67.8658 117.225 75.9873C120.432 78.9459 123.056 80.7671 123.056 80.0354C123.056 79.3038 120.308 76.1696 116.95 73.0726C112.936 69.3704 111.291 66.9904 112.153 66.1284C113.994 64.2859 117.645 66.4903 123.503 72.9782C126.182 75.9461 128.374 77.7753 128.374 77.0436C128.374 76.3119 126.28 73.3932 123.721 70.5597C115.058 60.9641 119.198 59.0325 128.374 68.3886C135.025 75.1692 136.352 75.6587 136.352 71.3312C136.352 67.8046 126.049 57.2087 119.34 53.8337C114.888 51.5935 98.0635 49.1271 87.1067 49.1098C83.7164 49.1031 78.7878 47.9338 75.8575 46.4385C69.7456 43.3203 68.997 43.2764 64.4141 45.7694Z" fill="#DE2920"/>
</svg>
