<svg width="32" height="32" viewBox="0 0 32 32" fill="none" xmlns="http://www.w3.org/2000/svg">
<path d="M16.0003 2.57129C18.9555 2.57129 21.7898 3.74527 23.8795 5.83496C25.9692 7.92465 27.1431 10.7589 27.1431 13.7141C27.1431 18.4227 23.8346 23.5541 17.3031 29.1633C16.94 29.4753 16.4769 29.6466 15.9981 29.6462C15.5194 29.6458 15.0566 29.4736 14.694 29.161L14.262 28.7861C8.01971 23.3233 4.85742 18.3176 4.85742 13.7141C4.85742 10.7589 6.0314 7.92465 8.12109 5.83496C10.2108 3.74527 13.045 2.57129 16.0003 2.57129ZM16.0003 9.42843C14.8636 9.42843 13.7735 9.87996 12.9698 10.6837C12.1661 11.4874 11.7146 12.5775 11.7146 13.7141C11.7146 14.8508 12.1661 15.9409 12.9698 16.7446C13.7735 17.5483 14.8636 17.9999 16.0003 17.9999C17.1369 17.9999 18.227 17.5483 19.0307 16.7446C19.8345 15.9409 20.286 14.8508 20.286 13.7141C20.286 12.5775 19.8345 11.4874 19.0307 10.6837C18.227 9.87996 17.1369 9.42843 16.0003 9.42843Z" fill="#0A0D2F"/>
</svg>
