<svg width="227" height="146" viewBox="0 0 227 146" fill="none" xmlns="http://www.w3.org/2000/svg">
<path fill-rule="evenodd" clip-rule="evenodd" d="M115.474 5.84077C114.5 9.35315 113.669 15.2182 113.628 18.8735L113.552 25.5194L108.678 19.8089C105.998 16.667 103.521 14.424 103.172 14.8244C102.824 15.2232 102.08 21.9057 101.517 29.6732C100.843 38.9708 101.038 42.9435 102.09 41.3036C102.967 39.9328 103.696 34.8869 103.711 30.0885C103.725 25.2901 104.342 21.3657 105.083 21.3657C105.824 21.3657 108.084 23.6087 110.107 26.3502C112.13 29.0916 114.435 31.3346 115.228 31.3346C116.454 31.3346 118.725 1.67375 117.626 0.0255558C117.415 -0.288465 116.447 2.32838 115.474 5.84077ZM71.045 21.7811C71.5558 28.864 71.5889 34.6576 71.1196 34.6576C70.6487 34.6576 68.3802 33.1722 66.0768 31.3579C63.7735 29.5419 61.165 28.5051 60.2811 29.0534C59.3956 29.6017 62.223 32.5791 66.5627 35.6695C70.9024 38.7615 74.738 41.0045 75.0862 40.6556C75.9369 39.8032 72.0914 10.7903 70.987 9.73529C70.5094 9.27838 70.5359 14.6982 71.045 21.7811ZM130.575 15.8562C126.501 17.4895 124.959 24.7601 127.775 29.0667C131.036 34.0545 139.311 34.4765 141.819 29.7828C146.568 20.8905 139.588 12.2441 130.575 15.8562ZM86.2531 25.5593C88.6493 33.5345 89.9046 35.7791 91.2279 34.4533C92.5313 33.1457 87.7637 19.0778 85.7937 18.4199C84.4986 17.9862 84.6412 20.191 86.2531 25.5593ZM139.903 23.3313C140.568 29.1016 135.519 32.2867 130.978 28.9604C128.333 27.0231 128.191 26.1043 129.935 22.2646C132.681 16.2267 139.164 16.9196 139.903 23.3313ZM152.296 28.4088C146.891 35.9768 146.75 41.3368 152.14 34.317L155.07 30.5039L155.106 35.073C155.146 40.1538 156.995 40.9198 160.118 37.1499C163.386 33.2038 165.167 34.2472 163.346 39.0423C162.431 41.4531 162.078 43.8207 162.559 44.3026C163.968 45.7148 164.937 44.0101 167.412 35.7708C170.047 26.9965 168.051 25.2901 162.447 31.529L159.288 35.0481L158.459 27.9934L157.63 20.9404L152.296 28.4088ZM43.191 40.2685C41.07 43.51 40.9655 45.007 42.6072 48.6158C46.1244 56.35 55.7491 56.5128 59.2132 48.8949C63.6906 39.0456 49.1209 31.2001 43.191 40.2685ZM55.8071 43.2675C57.0442 45.5819 56.9729 47.1786 55.5584 48.8866C52.7592 52.2644 47.7761 51.8441 45.7547 48.0592C43.5409 43.9121 43.5657 43.6745 46.5738 40.6622C49.5637 37.6666 53.3927 38.7465 55.8071 43.2675ZM176.7 45.4573C172.596 47.6588 169.984 49.5811 170.896 49.7273C174.81 50.357 176.034 50.7059 178.868 51.9969C180.518 52.7479 181.483 54.3645 181.014 55.5874C180.546 56.8102 180.805 58.2109 181.591 58.6977C182.834 59.467 188.308 46.406 188.308 42.6693C188.308 40.3598 184.496 41.2753 176.7 45.4573ZM183.333 48.8783C183.333 50.3022 182.587 51.0067 181.675 50.4418C180.763 49.8769 180.017 48.7122 180.017 47.8515C180.017 46.9909 180.763 46.288 181.675 46.288C182.587 46.288 183.333 47.4544 183.333 48.8783ZM19.1642 49.3468C19.1642 50.2656 23.29 53.6019 28.3345 56.7637C37.5827 62.559 37.639 64.5262 28.5633 64.5893C20.4693 64.6475 20.1857 67.374 27.8104 71.85C35.941 76.6252 37.4052 77.0289 37.4052 74.4985C37.4052 73.5647 35.5181 71.9398 33.2131 70.8864C28.3908 68.6849 30.5284 66.3106 37.4052 66.2259C46.1012 66.1196 46.2886 63.5625 37.9525 58.7658C33.5464 56.232 27.5186 52.6997 24.5536 50.9186C21.5886 49.1358 19.1642 48.4297 19.1642 49.3468ZM80.343 57.0827C76.5273 59.1613 70.5707 66.2176 70.5707 68.66C70.5707 69.1485 72.2871 69.5489 74.3848 69.5489C83.7739 69.5489 84.5483 77.5921 76.2122 88.5314C72.9305 92.838 70.7084 96.8255 71.2755 97.3921C71.841 97.9603 73.4711 96.7574 74.8955 94.7204C80.8504 86.2003 89.5464 79.9996 91.3771 82.9687C91.9874 83.9573 88.9345 88.0811 84.5915 92.1335C80.2484 96.1859 77.1823 99.989 77.7793 100.585C78.3746 101.182 81.6613 98.8559 85.0807 95.4166C94.8015 85.6387 102.685 82.3158 116.173 82.3091C129.524 82.3041 135.229 84.6801 146.211 94.8234C150.211 98.5186 153.485 100.793 153.485 99.8793C153.485 98.9655 150.057 95.0511 145.868 91.1831C140.862 86.5592 138.81 83.5868 139.885 82.5101C142.182 80.209 146.735 82.9621 154.042 91.0652C157.383 94.7719 160.118 97.0565 160.118 96.1427C160.118 95.2288 157.506 91.5835 154.314 88.0446C143.508 76.0602 148.672 73.6478 160.118 85.333C168.412 93.8016 170.067 94.4131 170.067 89.0082C170.067 84.6036 157.217 71.3699 148.85 67.1547C143.296 64.3567 122.312 61.2763 108.646 61.2547C104.418 61.2464 98.2706 59.786 94.6157 57.9185C86.9926 54.0239 86.059 53.9691 80.343 57.0827ZM194.941 60.5237C187.967 65.4566 187.743 67.3175 193.603 71.7005C197.833 74.8656 198.289 74.8939 202.309 72.2554C206.786 69.3163 207.679 64.7987 204.833 59.4703C202.677 55.4345 202.044 55.501 194.941 60.5237ZM203.233 64.5794C203.233 68.8627 198.391 71.3981 194.349 69.2315C191.365 67.6315 191.456 67.3158 195.963 63.7154C201.205 59.5284 203.233 59.7694 203.233 64.5794ZM75.5456 123.449C75.5456 130.25 76.2918 136.274 77.2038 136.839C78.2569 137.49 78.8621 132.98 78.8621 124.476C78.8621 116.657 78.1723 111.086 77.2038 111.086C76.247 111.086 75.5456 116.315 75.5456 123.449ZM99.2838 112.759C86.6958 117.842 92.989 140.315 106.079 137.024C108.439 136.43 110.369 135.198 110.369 134.284C110.369 133.333 108.565 133.076 106.157 133.681C100.934 134.995 95.4449 130.522 95.4449 124.951C95.4449 119.261 101.423 113.884 106.368 115.127C110.777 116.237 111.93 113.703 107.746 112.095C104.537 110.86 103.854 110.915 99.2838 112.759ZM0.0940292 114.409C0.657843 115.323 2.19341 116.071 3.50842 116.071C5.32423 116.071 5.89799 118.468 5.89799 126.039C5.89799 131.577 6.63427 136.008 7.55627 136.008C8.47827 136.008 9.21455 131.577 9.21455 126.039C9.21455 118.285 9.76675 116.071 11.702 116.071C13.07 116.071 14.1894 115.323 14.1894 114.409C14.1894 113.495 10.7866 112.748 6.62929 112.748C2.011 112.748 -0.532799 113.394 0.0940292 114.409ZM14.191 129.876C14.1894 134.781 14.8295 137.469 15.8476 136.839C16.7597 136.274 17.5059 133.24 17.5059 130.095C17.5059 126.121 18.2638 124.378 19.9933 124.378C21.3614 124.378 22.4807 123.71 22.4807 122.893C22.4807 122.075 20.6152 121.514 18.3367 121.647C14.5243 121.866 14.191 122.525 14.191 129.876ZM26.1041 123.074C21.0497 128.138 26.3993 138.791 33.0921 136.99C35.009 136.475 37.1349 136.043 37.8198 136.032C38.5047 136.018 39.0618 132.832 39.0602 128.947C39.0569 122.14 38.8595 121.872 33.563 121.495C30.5416 121.281 27.1853 121.99 26.1041 123.074ZM42.4497 123.132C42.4878 124.275 43.8891 127.787 45.5639 130.939L48.6102 136.668L52.1274 129.758C56.0293 122.098 56.283 121.055 54.255 121.055C53.4888 121.055 51.8986 123.11 50.7195 125.624L48.5787 130.193L47 125.624C45.4014 121 42.322 119.312 42.4497 123.132ZM59.0457 123.448C57.9562 124.762 57.3062 127.925 57.5997 130.477C58.3194 136.728 65.9126 139.727 70.1827 135.447C72.9122 132.709 72.7713 132.587 67.4349 133.039C64.0554 133.325 61.5182 132.687 61.0771 131.439C60.5796 130.027 62.2479 129.362 66.2874 129.362C70.0567 129.362 72.229 128.573 72.229 127.203C72.229 121.529 62.8481 118.855 59.0457 123.448ZM115.676 123.049C112.373 126.358 113.271 134.008 117.211 136.121C121.672 138.512 127.793 136 129.027 131.272C130.937 123.949 120.929 117.785 115.676 123.049ZM131.927 128.635C131.927 137.628 134.857 139.933 135.555 131.488C135.918 127.111 136.943 125.071 138.975 124.685C141.3 124.243 141.877 125.315 141.877 130.072C141.877 133.337 142.623 136.008 143.535 136.008C144.447 136.008 145.193 133.392 145.193 130.193C145.193 126.133 145.943 124.378 147.681 124.378C149.418 124.378 150.168 126.133 150.168 130.193C150.168 133.392 150.957 136.008 151.921 136.008C152.959 136.008 153.466 133.126 153.164 128.947L152.655 121.886L142.291 121.671L131.927 121.457V128.635ZM158.459 133.769C158.459 140.8 159.162 145.977 160.118 145.977C161.03 145.977 161.776 143.684 161.776 140.882C161.776 136.5 162.253 135.937 165.172 136.864C169.724 138.313 173.384 134.97 173.384 129.362C173.384 123.559 170.561 121.216 163.801 121.409L158.459 121.56V133.769ZM178.665 123.074C173.611 128.138 178.961 138.791 185.653 136.99C187.57 136.475 189.698 136.043 190.381 136.032C191.064 136.018 191.623 132.832 191.622 128.947C191.618 122.14 191.421 121.872 186.124 121.495C183.103 121.281 179.747 121.99 178.665 123.074ZM196.6 128.698C196.6 132.719 197.346 136.008 198.258 136.008C199.17 136.008 199.916 133.392 199.916 130.193C199.916 125.486 200.548 124.378 203.233 124.378C205.918 124.378 206.549 125.486 206.549 130.193C206.549 133.392 207.339 136.008 208.302 136.008C209.34 136.008 209.848 133.126 209.546 128.947C209.048 122.037 208.902 121.881 202.818 121.637L196.6 121.387V128.698ZM214.222 127.286C217.205 134.064 217.441 136.543 215.637 142.239C213.652 148.513 217.471 146.428 220.2 139.747C221.6 136.321 223.961 130.713 225.449 127.286C227.099 123.484 227.465 121.055 226.391 121.055C225.422 121.055 223.635 123.429 222.416 126.332L220.202 131.607L217.479 126.332C213.653 118.918 210.896 119.726 214.222 127.286ZM35.4418 128.932C34.8531 134.043 29.7108 136.176 28.1023 131.978C26.5634 127.959 28.6296 124.378 32.4884 124.378C35.3025 124.378 35.8664 125.249 35.4418 128.932ZM68.9125 126.039C68.9125 126.953 67.0021 127.701 64.6689 127.701C62.2628 127.701 60.8682 126.982 61.4502 126.039C62.014 125.126 63.9227 124.378 65.6937 124.378C67.4648 124.378 68.9125 125.126 68.9125 126.039ZM124.465 129.362C124.465 131.956 123.393 133.677 121.558 134.031C118.274 134.664 116.14 130.687 117.649 126.747C119.231 122.618 124.465 124.626 124.465 129.362ZM169.238 129.362C169.238 131.956 168.167 133.677 166.331 134.031C163.048 134.664 160.914 130.687 162.423 126.747C164.005 122.618 169.238 124.626 169.238 129.362ZM187.479 129.362C187.479 131.956 186.408 133.677 184.572 134.031C181.289 134.664 179.155 130.687 180.664 126.747C182.246 122.618 187.479 124.626 187.479 129.362Z" fill="#0A0D2F"/>
<path fill-rule="evenodd" clip-rule="evenodd" d="M80.3425 57.1154C76.5268 59.1921 70.5703 66.2423 70.5703 68.6826C70.5703 69.1706 72.2866 69.5707 74.3843 69.5707C83.7735 69.5707 84.5479 77.6069 76.2118 88.5367C72.93 92.8395 70.7079 96.8236 71.2751 97.3897C71.8406 97.9574 73.4706 96.7555 74.8951 94.7203C80.85 86.2076 89.546 80.0124 91.3767 82.9788C91.9869 83.9666 88.9341 88.0868 84.591 92.1356C80.248 96.1845 77.1819 99.9843 77.7788 100.58C78.3742 101.176 81.6609 98.8522 85.0802 95.4159C94.801 85.6465 102.684 82.3265 116.173 82.3198C129.524 82.3148 135.228 84.6887 146.211 94.8233C150.211 98.5152 153.484 100.788 153.484 99.8748C153.484 98.9617 150.056 95.0507 145.868 91.1861C140.861 86.5662 138.81 83.5964 139.885 82.5207C142.181 80.2215 146.735 82.9722 154.041 91.0682C157.383 94.7718 160.117 97.0543 160.117 96.1413C160.117 95.2283 157.505 91.5862 154.313 88.0503C143.508 76.0764 148.672 73.666 160.117 85.3411C168.412 93.8023 170.067 94.4132 170.067 89.0131C170.067 84.6123 157.217 71.3901 148.849 67.1786C143.296 64.383 122.312 61.3053 108.646 61.2837C104.417 61.2754 98.2701 59.8163 94.6153 57.9504C86.9922 54.0592 86.0586 54.0045 80.3425 57.1154Z" fill="#DE2920"/>
</svg>
