<svg width="32" height="42" viewBox="0 0 32 42" fill="none" xmlns="http://www.w3.org/2000/svg">
<g clip-path="url(#clip0_119_842)">
<path d="M2 0H19.6991C19.9771 0 20.2425 0.115702 20.4317 0.319348L30.7324 11.4063C30.9043 11.5913 30.9998 11.8345 30.9998 12.087V41C30.9998 41.5523 30.5521 42 29.9998 42H2C1.44772 42 1 41.5523 1 41V1C1 0.447715 1.44771 0 2 0Z" fill="#79C3CB" stroke="#79C3CB"/>
<path d="M20.4236 10.7503L20.9238 1.05915L30.0653 10.9299L21.5232 11.7967C20.9135 11.8586 20.392 11.3624 20.4236 10.7503Z" fill="#59ADB6" stroke="#79C3CB"/>
<path d="M6.0164 32V24.4855H8.98111C9.55106 24.4855 10.0366 24.5943 10.4378 24.812C10.839 25.0273 11.1447 25.3269 11.3551 25.711C11.5679 26.0926 11.6743 26.5329 11.6743 27.0319C11.6743 27.5309 11.5667 27.9712 11.3514 28.3528C11.1362 28.7344 10.8243 29.0316 10.4158 29.2444C10.0097 29.4572 9.51804 29.5637 8.94075 29.5637H7.05111V28.2904H8.68391C8.98967 28.2904 9.24163 28.2378 9.43976 28.1327C9.64035 28.025 9.78956 27.877 9.8874 27.6887C9.9877 27.4979 10.0378 27.279 10.0378 27.0319C10.0378 26.7824 9.9877 26.5647 9.8874 26.3788C9.78956 26.1904 9.64035 26.0449 9.43976 25.9422C9.23918 25.837 8.98478 25.7844 8.67657 25.7844H7.60516V32H6.0164ZM15.3701 32H12.7063V24.4855H15.3921C16.148 24.4855 16.7986 24.6359 17.3441 24.9368C17.8896 25.2352 18.3091 25.6645 18.6027 26.2247C18.8987 26.7848 19.0466 27.4551 19.0466 28.2354C19.0466 29.0182 18.8987 29.6909 18.6027 30.2535C18.3091 30.8161 17.8872 31.2478 17.3368 31.5487C16.7889 31.8496 16.1333 32 15.3701 32ZM14.295 30.6387H15.3041C15.7737 30.6387 16.1688 30.5556 16.4892 30.3892C16.8121 30.2204 17.0543 29.9599 17.2157 29.6077C17.3796 29.253 17.4616 28.7956 17.4616 28.2354C17.4616 27.6801 17.3796 27.2264 17.2157 26.8741C17.0543 26.5219 16.8133 26.2626 16.4929 26.0963C16.1724 25.9299 15.7774 25.8468 15.3077 25.8468H14.295V30.6387ZM20.2235 32V24.4855H25.199V25.7954H21.8123V27.586H24.8687V28.8959H21.8123V32H20.2235Z" fill="white"/>
</g>
<defs>
<clipPath id="clip0_119_842">
<rect width="32" height="42" fill="white"/>
</clipPath>
</defs>
</svg>
