<svg width="22" height="24" viewBox="0 0 22 24" fill="none" xmlns="http://www.w3.org/2000/svg">
<path d="M9.53346 19.5296C8.474 19.53 7.42485 19.3169 6.44592 18.9025C5.46699 18.4881 4.57746 17.8806 3.82813 17.1146C2.3028 15.5546 1.4668 13.4846 1.4668 11.2796C1.4668 9.07461 2.3028 7.00461 3.82813 5.44461C6.9668 2.23461 12.0855 2.23461 15.2388 5.44461C16.7641 7.00461 17.6001 9.07461 17.6001 11.2796C17.6001 13.4846 16.7641 15.5546 15.2388 17.1146C14.4895 17.8806 13.5999 18.4881 12.621 18.9025C11.6421 19.3169 10.5929 19.53 9.53346 19.5296ZM9.53346 4.52961C7.8468 4.52961 6.16013 5.18961 4.86946 6.50961C3.6228 7.78461 2.93346 9.47961 2.93346 11.2796C2.93346 13.0796 3.6228 14.7746 4.86946 16.0496C6.10886 17.31 7.78564 18.0175 9.53346 18.0175C11.2813 18.0175 12.9581 17.31 14.1975 16.0496C15.4441 14.7746 16.1335 13.0796 16.1335 11.2796C16.1335 9.47961 15.4441 7.78461 14.1975 6.50961C13.5861 5.8813 12.8593 5.38289 12.0589 5.04307C11.2584 4.70325 10.4001 4.52875 9.53346 4.52961Z" fill="white"/>
<path d="M19.8 22.5C19.7039 22.5012 19.6085 22.4818 19.5201 22.4431C19.4317 22.4043 19.3522 22.3471 19.2867 22.275L14.3294 17.205C14.036 16.905 14.036 16.44 14.3294 16.14C14.6227 15.84 15.0774 15.84 15.3707 16.14L20.328 21.21C20.6214 21.51 20.6214 21.975 20.328 22.275C20.1814 22.425 19.9907 22.5 19.8147 22.5H19.8Z" fill="white"/>
</svg>
