<svg width="106" height="68" viewBox="0 0 106 68" fill="none" xmlns="http://www.w3.org/2000/svg">
<path fill-rule="evenodd" clip-rule="evenodd" d="M53.9216 2.72036C53.467 4.35626 53.0791 7.08793 53.0597 8.79039L53.0241 11.8858L50.7483 9.22606C49.4969 7.76272 48.34 6.71803 48.1774 6.90453C48.0148 7.09025 47.6671 10.2027 47.4046 13.8204C47.0895 18.1508 47.1808 20.0011 47.6718 19.2373C48.0814 18.5989 48.4221 16.2487 48.4291 14.0138C48.4353 11.779 48.7234 9.95115 49.0695 9.95115C49.4156 9.95115 50.4711 10.9958 51.4158 12.2727C52.3605 13.5495 53.4368 14.5942 53.807 14.5942C54.3792 14.5942 55.4401 0.779556 54.9267 0.0119027C54.8283 -0.134354 54.3761 1.08445 53.9216 2.72036ZM33.1752 10.1446C33.4137 13.4435 33.4292 16.1419 33.21 16.1419C32.9901 16.1419 31.9308 15.4501 30.8553 14.6051C29.7797 13.7592 28.5616 13.2764 28.1489 13.5317C27.7354 13.7871 29.0557 15.1738 31.0821 16.6132C33.1086 18.0533 34.8997 19.098 35.0623 18.9355C35.4595 18.5385 33.6638 5.02564 33.1481 4.53425C32.9251 4.32144 32.9375 6.84572 33.1752 10.1446ZM60.9735 7.38509C59.071 8.14578 58.3508 11.5321 59.6657 13.5379C61.1888 15.861 65.0528 16.0576 66.2236 13.8714C68.4414 9.72983 65.1821 5.70275 60.9735 7.38509ZM40.2768 11.9043C41.3957 15.6188 41.9819 16.6643 42.5998 16.0467C43.2084 15.4377 40.9822 8.88557 40.0623 8.57913C39.4575 8.37715 39.5241 9.40405 40.2768 11.9043ZM65.3293 10.8666C65.6398 13.5542 63.2819 15.0376 61.1617 13.4884C59.9266 12.5861 59.86 12.1582 60.6747 10.3698C61.957 7.55765 64.9839 7.88035 65.3293 10.8666ZM71.116 13.2315C68.5924 16.7563 68.5266 19.2528 71.0432 15.9833L72.4115 14.2073L72.4285 16.3354C72.4471 18.7018 73.3105 19.0585 74.7686 17.3027C76.2948 15.4648 77.1265 15.9508 76.2762 18.1841C75.8488 19.3069 75.6839 20.4097 75.9084 20.6341C76.5666 21.2918 77.0188 20.4979 78.1749 16.6604C79.4054 12.5737 78.4731 11.779 75.8565 14.6848L74.3814 16.3238L73.9942 13.038L73.6071 9.75305L71.116 13.2315ZM20.1685 18.7552C19.1781 20.2649 19.1293 20.9622 19.8959 22.643C21.5383 26.2452 26.0326 26.321 27.6502 22.773C29.741 18.1856 22.9375 14.5315 20.1685 18.7552ZM26.0597 20.152C26.6374 21.2299 26.6041 21.9736 25.9436 22.7691C24.6365 24.3423 22.3095 24.1465 21.3656 22.3837C20.3319 20.4522 20.3435 20.3416 21.7481 18.9386C23.1443 17.5433 24.9323 18.0463 26.0597 20.152ZM82.5121 21.1719C80.5956 22.1972 79.376 23.0926 79.8018 23.1607C81.6293 23.454 82.2008 23.6165 83.5241 24.2177C84.2946 24.5675 84.7453 25.3205 84.5261 25.89C84.3078 26.4596 84.4286 27.1119 84.7956 27.3387C85.3764 27.6969 87.9325 21.6138 87.9325 19.8734C87.9325 18.7977 86.1523 19.2241 82.5121 21.1719ZM85.6095 22.7652C85.6095 23.4284 85.261 23.7565 84.8351 23.4934C84.4092 23.2303 84.0608 22.6879 84.0608 22.287C84.0608 21.8862 84.4092 21.5588 84.8351 21.5588C85.261 21.5588 85.6095 22.1021 85.6095 22.7652ZM8.94892 22.9835C8.94892 23.4114 10.8755 24.9653 13.2311 26.4379C17.5496 29.1371 17.5759 30.0533 13.3379 30.0827C9.55833 30.1098 9.42592 31.3797 12.9864 33.4644C16.783 35.6884 17.4668 35.8765 17.4668 34.6979C17.4668 34.263 16.5856 33.5062 15.5092 33.0156C13.2574 31.9902 14.2555 30.8844 17.4668 30.8449C21.5274 30.7954 21.6149 29.6045 17.7223 27.3704C15.6648 26.1903 12.8501 24.5451 11.4656 23.7155C10.081 22.8852 8.94892 22.5563 8.94892 22.9835ZM37.517 26.5865C35.7352 27.5546 32.9537 30.8411 32.9537 31.9786C32.9537 32.2061 33.7552 32.3926 34.7347 32.3926C39.1191 32.3926 39.4807 36.1388 35.5881 41.2338C34.0556 43.2396 33.018 45.0968 33.2828 45.3607C33.5469 45.6254 34.3081 45.0651 34.9732 44.1164C37.7539 40.1481 41.8146 37.2601 42.6695 38.643C42.9545 39.1034 41.5289 41.0241 39.5009 42.9115C37.4728 44.7989 36.0411 46.5702 36.3198 46.848C36.5978 47.1258 38.1326 46.0425 39.7293 44.4406C44.2685 39.8865 47.9498 38.3388 54.2483 38.3358C60.4826 38.3334 63.1464 39.44 68.2749 44.1643C70.1426 45.8854 71.6712 46.9448 71.6712 46.5191C71.6712 46.0935 70.0706 44.2704 68.1146 42.4689C65.7768 40.3152 64.819 38.9308 65.3207 38.4294C66.3932 37.3576 68.5196 38.6399 71.9314 42.4139C73.4917 44.1404 74.7686 45.2044 74.7686 44.7788C74.7686 44.3532 73.549 42.6553 72.0584 41.0071C67.0127 35.4253 69.424 34.3017 74.7686 39.7441C78.6419 43.6884 79.4147 43.9732 79.4147 41.4559C79.4147 39.4044 73.4142 33.2408 69.5069 31.2775C66.9136 29.9744 57.115 28.5397 50.7336 28.5296C48.759 28.5257 45.8885 27.8455 44.1818 26.9757C40.6221 25.1618 40.1862 25.1363 37.517 26.5865ZM91.0299 28.1891C87.773 30.4867 87.6685 31.3534 90.405 33.3948C92.3804 34.8689 92.5933 34.8821 94.4703 33.6532C96.5611 32.2843 96.9777 30.1802 95.6489 27.6985C94.6422 25.8188 94.3464 25.8498 91.0299 28.1891ZM94.9016 30.0781C94.9016 32.073 92.6405 33.2539 90.7535 32.2448C89.3596 31.4996 89.4022 31.3526 91.5069 29.6757C93.9546 27.7256 94.9016 27.8378 94.9016 30.0781ZM35.2768 57.4969C35.2768 60.6642 35.6252 63.4702 36.0511 63.7333C36.5428 64.0367 36.8255 61.9357 36.8255 57.9751C36.8255 54.3334 36.5033 51.7387 36.0511 51.7387C35.6043 51.7387 35.2768 54.174 35.2768 57.4969ZM46.3616 52.518C40.4835 54.8852 43.4222 65.3522 49.5349 63.8192C50.6368 63.5429 51.5381 62.9688 51.5381 62.5431C51.5381 62.1005 50.6956 61.9806 49.5713 62.2622C47.1321 62.8743 44.569 60.7912 44.569 58.1965C44.569 55.546 47.3605 53.0419 49.6696 53.6207C51.7286 54.1376 52.2668 52.9575 50.3131 52.2085C48.8147 51.6335 48.4957 51.659 46.3616 52.518ZM0.0439079 53.2864C0.307187 53.712 1.02423 54.0603 1.63829 54.0603C2.4862 54.0603 2.75413 55.1769 2.75413 58.7033C2.75413 61.2825 3.09794 63.3464 3.52848 63.3464C3.95902 63.3464 4.30283 61.2825 4.30283 58.7033C4.30283 55.0918 4.56069 54.0603 5.46435 54.0603C6.10319 54.0603 6.62587 53.712 6.62587 53.2864C6.62587 52.8608 5.03691 52.5126 3.09562 52.5126C0.939055 52.5126 -0.248796 52.8136 0.0439079 53.2864ZM6.62665 60.4901C6.62587 62.7745 6.92477 64.0266 7.40022 63.7333C7.82611 63.4702 8.17457 62.0572 8.17457 60.5923C8.17457 58.7412 8.52845 57.9295 9.33609 57.9295C9.97493 57.9295 10.4976 57.6184 10.4976 57.2377C10.4976 56.8569 9.62648 56.5954 8.56252 56.6573C6.78229 56.7594 6.62665 57.0666 6.62665 60.4901ZM12.1896 57.322C9.82935 59.6807 12.3274 64.6426 15.4527 63.8037C16.3478 63.5638 17.3405 63.3626 17.6603 63.3572C17.9802 63.351 18.2403 61.8668 18.2396 60.0576C18.238 56.8871 18.1459 56.7625 15.6726 56.5869C14.2617 56.487 12.6944 56.8175 12.1896 57.322ZM19.8223 57.3491C19.8401 57.8815 20.4945 59.5174 21.2766 60.9854L22.699 63.6536L24.3414 60.4352C26.1635 56.8678 26.2819 56.3818 25.3349 56.3818C24.9772 56.3818 24.2346 57.339 23.684 58.5099L22.6843 60.6379L21.9471 58.5099C21.2007 56.3563 19.7627 55.57 19.8223 57.3491ZM27.572 57.4961C27.0633 58.1082 26.7597 59.5816 26.8968 60.7703C27.2328 63.6815 30.7786 65.0783 32.7725 63.0848C34.0471 61.8095 33.9813 61.753 31.4894 61.9635C29.9113 62.0966 28.7266 61.7995 28.5206 61.2183C28.2883 60.5606 29.0673 60.251 30.9536 60.251C32.7137 60.251 33.7281 59.8834 33.7281 59.245C33.7281 56.6023 29.3476 55.3572 27.572 57.4961ZM54.016 57.3104C52.4735 58.8519 52.8932 62.4147 54.7331 63.399C56.8161 64.5126 59.6742 63.3425 60.2503 61.1402C61.1424 57.7298 56.4692 54.8589 54.016 57.3104ZM61.6046 59.9121C61.6046 64.1009 62.9729 65.1742 63.2989 61.2408C63.4685 59.2025 63.9471 58.2522 64.8956 58.0726C65.9813 57.8668 66.2507 58.3659 66.2507 60.5814C66.2507 62.102 66.5992 63.3464 67.0251 63.3464C67.451 63.3464 67.7994 62.1276 67.7994 60.6379C67.7994 58.7467 68.1494 57.9295 68.961 57.9295C69.7725 57.9295 70.1225 58.7467 70.1225 60.6379C70.1225 62.1276 70.4911 63.3464 70.941 63.3464C71.4257 63.3464 71.6627 62.0038 71.5217 60.0576L71.284 56.7687L66.4443 56.6689L61.6046 56.5691V59.9121ZM73.9942 62.3032C73.9942 65.5782 74.3226 67.9894 74.7686 67.9894C75.1945 67.9894 75.5429 66.9215 75.5429 65.6161C75.5429 63.5754 75.7659 63.3131 77.1288 63.7449C79.2544 64.4197 80.9634 62.8627 80.9634 60.251C80.9634 57.548 79.6454 56.4569 76.4884 56.5466L73.9942 56.617V62.3032ZM83.4297 57.322C81.0695 59.6807 83.5675 64.6426 86.6928 63.8037C87.5879 63.5638 88.5814 63.3626 88.9004 63.3572C89.2195 63.351 89.4804 61.8668 89.4797 60.0576C89.4781 56.8871 89.386 56.7625 86.9127 56.5869C85.5018 56.487 83.9345 56.8175 83.4297 57.322ZM91.8043 59.9415C91.8043 61.8142 92.1527 63.3464 92.5786 63.3464C93.0045 63.3464 93.353 62.1276 93.353 60.6379C93.353 58.4456 93.648 57.9295 94.9016 57.9295C96.1553 57.9295 96.4503 58.4456 96.4503 60.6379C96.4503 62.1276 96.8189 63.3464 97.2688 63.3464C97.7536 63.3464 97.9905 62.0038 97.8496 60.0576C97.6173 56.8391 97.5491 56.7664 94.7081 56.6526L91.8043 56.5366V59.9415ZM100.033 59.2837C101.426 62.441 101.536 63.5956 100.694 66.2483C99.7669 69.1703 101.55 68.1992 102.825 65.0875C103.478 63.4919 104.581 60.8801 105.276 59.2837C106.046 57.5132 106.217 56.3818 105.715 56.3818C105.263 56.3818 104.428 57.4876 103.859 58.8395L102.826 61.2965L101.554 58.8395C99.7677 55.3866 98.4799 55.7627 100.033 59.2837ZM16.5499 60.0506C16.275 62.4309 13.8738 63.4245 13.1227 61.469C12.4041 59.5971 13.3689 57.9295 15.1708 57.9295C16.4849 57.9295 16.7482 58.335 16.5499 60.0506ZM32.1794 58.7033C32.1794 59.1289 31.2873 59.4772 30.1978 59.4772C29.0742 59.4772 28.423 59.1421 28.6948 58.7033C28.9581 58.2777 29.8494 57.9295 30.6764 57.9295C31.5034 57.9295 32.1794 58.2777 32.1794 58.7033ZM58.1201 60.251C58.1201 61.459 57.6198 62.2607 56.7626 62.4255C55.2294 62.7203 54.2328 60.8678 54.9375 59.033C55.6762 57.11 58.1201 58.0448 58.1201 60.251ZM79.0275 60.251C79.0275 61.459 78.5273 62.2607 77.6701 62.4255C76.1369 62.7203 75.1403 60.8678 75.8449 59.033C76.5836 57.11 79.0275 58.0448 79.0275 60.251ZM87.5453 60.251C87.5453 61.459 87.0451 62.2607 86.1879 62.4255C84.6547 62.7203 83.6581 60.8678 84.3628 59.033C85.1015 57.11 87.5453 58.0448 87.5453 60.251Z" fill="#0A0D2F"/>
<path fill-rule="evenodd" clip-rule="evenodd" d="M37.5164 26.6008C35.7346 27.5681 32.9531 30.8517 32.9531 31.9883C32.9531 32.2156 33.7546 32.4019 34.7341 32.4019C39.1185 32.4019 39.4801 36.1449 35.5875 41.2354C34.055 43.2395 33.0174 45.0951 33.2822 45.3587C33.5463 45.6232 34.3075 45.0634 34.9726 44.1155C37.7533 40.1507 41.814 37.2652 42.6689 38.6468C42.9538 39.1069 41.5283 41.0259 39.5002 42.9116C37.4722 44.7974 36.0405 46.5672 36.3192 46.8448C36.5972 47.1223 38.132 46.0399 39.7287 44.4394C44.2679 39.8893 47.9492 38.343 54.2477 38.3399C60.482 38.3376 63.1458 39.4432 68.2743 44.1634C70.142 45.8829 71.6706 46.9414 71.6706 46.5162C71.6706 46.0909 70.07 44.2693 68.114 42.4694C65.7762 40.3177 64.8184 38.9345 65.3201 38.4334C66.3926 37.3626 68.519 38.6437 71.9308 42.4145C73.4911 44.1394 74.768 45.2026 74.768 44.7773C74.768 44.3521 73.5484 42.6557 72.0577 41.0089C67.0121 35.432 69.4234 34.3094 74.768 39.7471C78.6413 43.6879 79.4141 43.9724 79.4141 41.4573C79.4141 39.4076 73.4136 33.2493 69.5063 31.2878C66.913 29.9858 57.1144 28.5523 50.733 28.5423C48.7584 28.5384 45.8878 27.8588 44.1812 26.9897C40.6215 25.1774 40.1855 25.1519 37.5164 26.6008Z" fill="#DE2920"/>
</svg>
