<svg width="36" height="36" viewBox="0 0 36 36" fill="none" xmlns="http://www.w3.org/2000/svg">
<path d="M17.9762 7.875C12.496 7.875 6.87452 11.0468 2.44905 17.3904C2.32273 17.5735 2.25351 17.7899 2.25013 18.0122C2.24675 18.2346 2.30937 18.453 2.43007 18.6398C5.83038 23.9625 11.3766 28.125 17.9762 28.125C24.504 28.125 30.1641 23.9498 33.5708 18.6152C33.6887 18.4321 33.7513 18.2189 33.7513 18.0011C33.7513 17.7832 33.6887 17.57 33.5708 17.3869C30.1564 12.1134 24.4548 7.875 17.9762 7.875Z" stroke="white" stroke-width="2.25" stroke-linecap="round" stroke-linejoin="round"/>
<path d="M18 23.625C21.1066 23.625 23.625 21.1066 23.625 18C23.625 14.8934 21.1066 12.375 18 12.375C14.8934 12.375 12.375 14.8934 12.375 18C12.375 21.1066 14.8934 23.625 18 23.625Z" stroke="white" stroke-width="2.25" stroke-miterlimit="10"/>
<line x1="2.45494" y1="9.10948" x2="35.2533" y2="25.8652" stroke="white" stroke-width="2"/>
</svg>
